# xmcd
#
# Track frame offsets:
#	150
#	12352
#	25886
#	38556
#	51020
#	62948
#	73972
#	84720
#	93932
#	104606
#
# Disc length: 1541 seconds
#
# Revision: 1
# Processed by: cddbd v1.5.2PL0 Copyright (c) Steve Scherf et al.
# Submitted via: audiograbber 1.83.01
#
DISCID=8406030a
DTITLE=Porter Wagoner - I'll Keep On Lovin' You
DYEAR=1973
DGENRE=Country
TTITLE0=Lightening The Load
TTITLE1=Keep On Lovin' You
TTITLE2=Stella, Dear Dear Sweet Stella
TTITLE3=The Truth Or A Lie
TTITLE4=Treat Her Kind
TTITLE5=Childhood Playground
TTITLE6=Jasper County Law
TTITLE7=Can You Tell Me
TTITLE8=Talkin' To Myself
TTITLE9=Through The Eyes Of A Blind Man
EXTD=
EXTT0=
EXTT1=
EXTT2=
EXTT3=
EXTT4=
EXTT5=
EXTT6=
EXTT7=
EXTT8=
EXTT9=
PLAYORDER=
